<!-- TODO: PLACEHOLDER. Replace with a real screenshot of a sample restaurant site Inscrivo built (laptop + phone). -->
<svg xmlns="http://www.w3.org/2000/svg" width="640" height="440" viewBox="0 0 640 440" fill="none" role="img" aria-label="Sample restaurant website on laptop and phone (placeholder)">
  <defs>
    <linearGradient id="s-bg" x1="0" y1="0" x2="1" y2="1">
      <stop offset="0" stop-color="#f7f6f1"/>
      <stop offset="1" stop-color="#f0ece4"/>
    </linearGradient>
    <linearGradient id="s-hero" x1="0" y1="0" x2="1" y2="1">
      <stop offset="0" stop-color="#d4a23c"/>
      <stop offset="1" stop-color="#b9862a"/>
    </linearGradient>
  </defs>
  <rect width="640" height="440" rx="16" fill="url(#s-bg)"/>
  <!-- laptop -->
  <rect x="60" y="70" width="420" height="260" rx="12" fill="#14241c"/>
  <rect x="72" y="82" width="396" height="236" rx="4" fill="#ffffff"/>
  <rect x="72" y="82" width="396" height="120" fill="url(#s-hero)"/>
  <text x="96" y="140" font-family="Inter, sans-serif" font-size="26" font-weight="800" fill="#ffffff">Osteria Bella</text>
  <text x="96" y="168" font-family="Inter, sans-serif" font-size="13" fill="#f3e6c4">Handmade pasta &amp; wood-fired classics</text>
  <g fill="#e7e3dc">
    <rect x="96" y="222" width="110" height="74" rx="8"/>
    <rect x="216" y="222" width="110" height="74" rx="8"/>
    <rect x="336" y="222" width="110" height="74" rx="8"/>
  </g>
  <rect x="40" y="330" width="460" height="14" rx="7" fill="#14241c"/>
  <!-- phone overlay -->
  <rect x="470" y="150" width="120" height="240" rx="20" fill="#0c1611" stroke="#2c4438" stroke-width="2"/>
  <rect x="480" y="166" width="100" height="208" rx="12" fill="#ffffff"/>
  <rect x="480" y="166" width="100" height="76" rx="12" fill="url(#s-hero)"/>
  <g fill="#e7e3dc">
    <rect x="492" y="256" width="76" height="34" rx="6"/>
    <rect x="492" y="298" width="76" height="34" rx="6"/>
  </g>
  <rect x="492" y="344" width="76" height="18" rx="9" fill="#14241c"/>
</svg>
